<?xml version="1.0" encoding="utf-8"?>
<svg version="1.1" xmlns:xlink="http://www.w3.org/1999/xlink" width="37px" height="31px" xmlns="http://www.w3.org/2000/svg">
  <g transform="matrix(1 0 0 1 -305 -8 )">
    <path d="M 28.0631510416667 14.41015625  C 28.3682725694444 14.7169270833333  28.5208333333333 15.0802083333333  28.5208333333333 15.5  C 28.5208333333333 15.9197916666667  28.3682725694444 16.2830729166667  28.0631510416667 16.58984375  L 14.958984375 29.76484375  C 14.6538628472222 30.0716145833333  14.2925347222222 30.225  13.875 30.225  C 13.4574652777778 30.225  13.0961371527778 30.0716145833333  12.791015625 29.76484375  C 12.4858940972222 29.4580729166667  12.3333333333333 29.0947916666667  12.3333333333333 28.675  L 12.3333333333333 21.7  L 1.54166666666667 21.7  C 1.12413194444444 21.7  0.762803819444444 21.5466145833333  0.457682291666667 21.23984375  C 0.152560763888889 20.9330729166667  0 20.5697916666667  0 20.15  L 0 10.85  C 0 10.4302083333333  0.152560763888889 10.0669270833333  0.457682291666667 9.76015625  C 0.762803819444444 9.45338541666667  1.12413194444444 9.3  1.54166666666667 9.3  L 12.3333333333333 9.3  L 12.3333333333333 2.325  C 12.3333333333333 1.90520833333333  12.4858940972222 1.54192708333333  12.791015625 1.23515625  C 13.0961371527778 0.928385416666666  13.4574652777778 0.775000000000001  13.875 0.775000000000001  C 14.2925347222222 0.775000000000001  14.6538628472222 0.928385416666666  14.958984375 1.23515625  L 28.0631510416667 14.41015625  Z M 34.9645182291667 2.046484375  C 36.3215060763889 3.41080729166667  37 5.05364583333333  37 6.975  L 37 24.025  C 37 25.9463541666667  36.3215060763889 27.5891927083333  34.9645182291667 28.953515625  C 33.6075303819445 30.3178385416667  31.9735243055556 31  30.0625 31  L 22.3541666666667 31  C 22.1453993055556 31  21.9647352430556 30.9233072916667  21.8121744791667 30.769921875  C 21.6596137152778 30.6165364583333  21.5833333333333 30.4348958333333  21.5833333333333 30.225  C 21.5833333333333 30.1604166666667  21.5753038194444 29.9989583333333  21.5592447916667 29.740625  C 21.5431857638889 29.4822916666667  21.5391710069444 29.268359375  21.5472005208333 29.098828125  C 21.5552300347222 28.929296875  21.5793185763889 28.7395833333333  21.6194661458333 28.5296875  C 21.6596137152778 28.3197916666667  21.7399088541667 28.1623697916667  21.8603515625 28.057421875  C 21.9807942708333 27.9524739583333  22.1453993055556 27.9  22.3541666666667 27.9  L 30.0625 27.9  C 31.1223958333333 27.9  32.0297309027778 27.5205729166667  32.7845052083333 26.76171875  C 33.5392795138889 26.0028645833333  33.9166666666667 25.090625  34 24.025  L 34 6.975  C 33.9166666666667 5.909375  33.5392795138889 4.99713541666666  32.7845052083333 4.23828125  C 32.0297309027778 3.47942708333333  31.1223958333333 3.1  30.0625 3.1  L 23.125 3.1  L 22.8600260416667 3.1  L 22.546875 3.1  C 22.546875 3.1  22.4545355902778 3.09192708333333  22.2698567708333 3.07578125  C 22.0851779513889 3.05963541666666  21.9928385416667 3.03541666666667  21.9928385416667 3.003125  C 21.9928385416667 2.97083333333333  21.9286024305556 2.92643229166667  21.8001302083333 2.869921875  C 21.6716579861111 2.81341145833333  21.6154513888889 2.74075520833333  21.6315104166667 2.651953125  C 21.6475694444444 2.56315104166667  21.6315104166667 2.45416666666666  21.5833333333333 2.325  C 21.5833333333333 2.26041666666667  21.5753038194444 2.09895833333333  21.5592447916667 1.840625  C 21.5431857638889 1.58229166666667  21.5391710069444 1.368359375  21.5472005208333 1.198828125  C 21.5552300347222 1.029296875  21.5793185763889 0.83958333333333  21.6194661458333 0.629687499999999  C 21.6596137152778 0.419791666666663  21.7399088541667 0.262369791666666  21.8603515625 0.157421875000001  C 21.9807942708333 0.0524739583333304  22.1453993055556 0  22.3541666666667 0  L 30.0625 0  C 31.9735243055556 0  33.6075303819445 0.682161458333329  34.9645182291667 2.046484375  Z " fill-rule="nonzero" fill="#333333" stroke="none" transform="matrix(1 0 0 1 305 8 )" />
  </g>
</svg>