<?xml version="1.0" encoding="utf-8"?>
<svg version="1.1" xmlns:xlink="http://www.w3.org/1999/xlink" width="24px" height="24px" xmlns="http://www.w3.org/2000/svg">
  <g transform="matrix(1 0 0 1 -509 -542 )">
    <path d="M 17.1428571428571 5.14285714285714  L 22.7142857142857 5.14285714285714  C 23.0714285714286 5.14285714285714  23.375 5.26785714285714  23.625 5.51785714285714  C 23.875 5.76785714285714  24 6.07142857142857  24 6.42857142857143  L 24 22.7142857142857  C 24 23.0714285714286  23.875 23.375  23.625 23.625  C 23.375 23.875  23.0714285714286 24  22.7142857142857 24  L 9.85714285714286 24  C 9.5 24  9.19642857142857 23.875  8.94642857142857 23.625  C 8.69642857142857 23.375  8.57142857142857 23.0714285714286  8.57142857142857 22.7142857142857  L 8.57142857142857 18.8571428571429  L 1.28571428571429 18.8571428571429  C 0.928571428571429 18.8571428571429  0.625 18.7321428571429  0.375 18.4821428571429  C 0.125 18.2321428571429  0 17.9285714285714  0 17.5714285714286  L 0 8.57142857142857  C 0 8.21428571428572  0.0892857142857143 7.82142857142857  0.267857142857143 7.39285714285714  C 0.446428571428571 6.96428571428571  0.660714285714286 6.625  0.910714285714286 6.375  L 6.375 0.910714285714286  C 6.625 0.660714285714285  6.96428571428572 0.446428571428571  7.39285714285714 0.267857142857143  C 7.82142857142857 0.0892857142857153  8.21428571428572 0  8.57142857142857 0  L 14.1428571428571 0  C 14.5 0  14.8035714285714 0.125000000000001  15.0535714285714 0.375  C 15.3035714285714 0.624999999999999  15.4285714285714 0.928571428571428  15.4285714285714 1.28571428571429  L 15.4285714285714 5.67857142857143  C 16.0357142857143 5.32142857142857  16.6071428571429 5.14285714285714  17.1428571428571 5.14285714285714  Z M 15.4285714285714 12  L 15.4285714285714 7.99553571428571  L 11.4241071428571 12  L 15.4285714285714 12  Z M 6.85714285714286 6.85714285714286  L 6.85714285714286 2.85267857142857  L 2.85267857142857 6.85714285714286  L 6.85714285714286 6.85714285714286  Z M 8.83928571428572 12.5357142857143  C 9.01785714285714 12.1071428571429  9.23214285714286 11.7678571428571  9.48214285714286 11.5178571428571  L 13.7142857142857 7.28571428571429  L 13.7142857142857 1.71428571428571  L 8.57142857142857 1.71428571428571  L 8.57142857142857 7.28571428571429  C 8.57142857142857 7.64285714285714  8.44642857142857 7.94642857142857  8.19642857142857 8.19642857142857  C 7.94642857142857 8.44642857142857  7.64285714285714 8.57142857142857  7.28571428571428 8.57142857142857  L 1.71428571428571 8.57142857142857  L 1.71428571428571 17.1428571428571  L 8.57142857142857 17.1428571428571  L 8.57142857142857 13.7142857142857  C 8.57142857142857 13.3571428571429  8.66071428571429 12.9642857142857  8.83928571428572 12.5357142857143  Z M 10.2857142857143 22  L 22 22  L 22 6.85714285714286  L 17.1428571428571 6.85714285714286  L 17.1428571428571 12.4285714285714  C 17.1428571428571 12.7857142857143  17.0178571428571 13.0892857142857  16.7678571428571 13.3392857142857  C 16.5178571428571 13.5892857142857  16.2142857142857 13.7142857142857  15.8571428571429 13.7142857142857  L 10.2857142857143 13.7142857142857  L 10.2857142857143 22  Z " fill-rule="nonzero" fill="#333333" stroke="none" transform="matrix(1 0 0 1 509 542 )" />
  </g>
</svg>